{"title":"The Man Who Knew Too Much 1934","uid":5400443,"size":3883567104,"categoryP":"video","categoryS":"movies","magnet":"?xt=urn:btih:7f4c7b31579e87f45ebe659f264088f391e824be&amp;dn=The+Man+Who+Knew+Too+Much+1934&amp;tr=udp%3A%2F%2Ftracker.openbittorrent.com%3A80&amp;tr=udp%3A%2F%2Fopen.demonii.com%3A1337&amp;tr=udp%3A%2F%2Ftracker.coppersurfer.tk%3A6969&amp;tr=udp%3A%2F%2Fexodus.desync.com%3A6969","seeders":0,"leechers":2,"uploader":"2mean2die","files":-1,"time":1267398605,"description":"A man and his wife receive a clue to an imminent assassination attempt, only to learn that their daughter has been kidnapped to keep them quiet.\nDirector\nAlfred Hitchcock\nWriters\nCharles Bennett\nEdwin Greenwood\nA.R. Rawlinson\nD.B. Wyndham-Lewis\nComposer\nArthur Benjamin \nReview\nFilm buffs argue which version of exciting story is better. We vote this one, with Hitchcock in fine form weaving dry British humor into a story of heart-pounding suspense; young girl is kidnapped to prevent her parents from revealing what they've learned about assassination plot.\n\n\nLeslie Banks\tBob Lawrence\nEdna Best\tJill Lawrence\nPierre Fresnay\tLouis Bernard\nPeter Lorre\tAbbott\nCicely Oates\tNurse Agnes\nNova Pilbeam\tBetty Lawrence\nHugh Wakefield\tClive\nFrank Vosper\tRamon\nGeorge Curzon\t \n\n\nThis movie is part of the collection: Feature Films\n\nDirector: Alfred Hitchcock\nProducer: Ivor Montagu\nProduction Company: Gaumont British Picture Corporation\nAudio/Visual: sound, black &amp; white\nGeneral\nComplete name                    : The Man Who Knew Too Much 1934\nFormat                           : MPEG-PS\nFile size                        : 3.62 GiB\nDuration                         : 1h 15mn\nOverall bit rate                 : 6 889 Kbps\n\nVideo\nID                               : 224 (0xE0)\nFormat                           : MPEG Video\nFormat version                   : Version 2\nFormat profile                   : Main@Main\nFormat settings, BVOP            : Yes\nFormat settings, Matrix          : Default\nDuration                         : 1h 15mn\nBit rate mode                    : Constant\nBit rate                         : 6 392 Kbps\nNominal bit rate                 : 6 500 Kbps\nWidth                            : 720 pixels\nHeight                           : 480 pixels\nDisplay aspect ratio             : 4:3\nFrame rate                       : 29.970 fps\nStandard                         : NTSC\nResolution                       : 8 bits\nColorimetry                      : 4:2:0\nScan type                        : Interlaced\nScan order                       : Top Field First\nBits/(Pixel*Frame)               : 0.617\nStream size                      : 3.36 GiB (93%)\n\nAudio\nID                               : 192 (0xC0)\nFormat                           : MPEG Audio\nFormat version                   : Version 1\nFormat profile                   : Layer 2\nDuration                         : 1h 15mn\nBit rate mode                    : Constant\nBit rate                         : 224 Kbps\nChannel(s)                       : 2 channels\nSampling rate                    : 48.0 KHz\nVideo delay                      : -34ms\nStream size                      : 120 MiB (3%)\n\n\n","torrent":{"xt":"urn:btih:7f4c7b31579e87f45ebe659f264088f391e824be","amp;dn":"The+Man+Who+Knew+Too+Much+1934","amp;tr":["udp%3A%2F%2Ftracker.openbittorrent.com%3A80","udp%3A%2F%2Fopen.demonii.com%3A1337","udp%3A%2F%2Ftracker.coppersurfer.tk%3A6969","udp%3A%2F%2Fexodus.desync.com%3A6969"],"infoHash":"7f4c7b31579e87f45ebe659f264088f391e824be","infoHashBuffer":{"type":"Buffer","data":[127,76,123,49,87,158,135,244,94,190,101,159,38,64,136,243,145,232,36,190]},"announce":[],"urlList":[]}}